<?xml version="1.0" encoding="utf-8"?>
<!-- Generator: Adobe Illustrator 22.0.1, SVG Export Plug-In . SVG Version: 6.00 Build 0)  -->
<svg version="1.1" id="Layer_1" xmlns="http://www.w3.org/2000/svg" xmlns:xlink="http://www.w3.org/1999/xlink" x="0px" y="0px"
	 viewBox="0 0 480 480" style="enable-background:new 0 0 480 480;" xml:space="preserve">
<style type="text/css">
	.st0{fill-rule:evenodd;clip-rule:evenodd;fill:#1C8ED6;}
</style>
<g>
	<path class="st0" d="M204.5,47.8c3.5,0,6.9,0.1,10.3,0.3h219.2V20h38.6v28v38.6v57v38.6v28h-38.6v-28h-42.5
		c6.6,19.7,10.2,40.8,10.2,62.7c0,54.4-22.1,103.8-57.8,139.4c-35.7,35.7-85,57.8-139.4,57.8c-54.5,0-103.8-22.1-139.4-57.8
		C29.4,348.7,7.3,299.4,7.3,245c0-54.5,22.1-103.8,57.8-139.4C100.8,69.8,150.1,47.8,204.5,47.8L204.5,47.8z M434.1,86.6H204.5v-0.3
		c-43.8,0-83.5,17.8-112.2,46.5C63.7,161.5,45.9,201.2,45.9,245c0,43.8,17.8,83.5,46.5,112.2c28.7,28.7,68.4,46.5,112.2,46.5
		s83.5-17.8,112.2-46.5c28.7-28.7,46.5-68.4,46.5-112.2c0-22.3-4.6-43.5-12.9-62.7h-66.1c13.6,17.3,21.8,39,21.8,62.7
		c0,28-11.3,53.3-29.7,71.6c-18.3,18.3-43.7,29.7-71.6,29.7c-28,0-53.3-11.3-71.6-29.7c-18.3-18.3-29.7-43.7-29.7-71.6
		c0-28,11.3-53.3,29.7-71.7c18.3-18.3,43.7-29.7,71.6-29.7h122h47.2h60.3V86.6L434.1,86.6z M248.9,200.6
		c-11.3-11.3-27-18.4-44.4-18.4c-17.3,0-33,7-44.4,18.4c-11.4,11.4-18.4,27-18.4,44.4c0,17.3,7,33,18.4,44.4
		c11.4,11.4,27,18.4,44.4,18.4c17.3,0,33-7,44.4-18.4c11.4-11.3,18.4-27,18.4-44.4C267.3,227.6,260.3,211.9,248.9,200.6z"/>
</g>
</svg>
