<svg viewBox="0 0 772 422" xmlns="http://www.w3.org/2000/svg">
    <g>
<path
         style="fill:#3f8fd4;"
         d="m 2334.05,3080.98 c 6.41,0 12.8,-0.16 19.13,-0.49 h 407.75 v 52.11 h 71.78 v -52.11 -71.78 -106.04 -71.78 -52.1 h -71.78 v 52.1 h -79.07 c 12.29,-36.66 18.96,-75.89 18.96,-116.68 0,-101.27 -41.06,-192.97 -107.43,-259.34 -66.37,-66.37 -158.07,-107.42 -259.34,-107.42 -101.28,0 -192.98,41.05 -259.34,107.42 -66.38,66.37 -107.44,158.07 -107.44,259.34 0,101.28 41.06,192.97 107.44,259.34 66.36,66.38 158.06,107.43 259.34,107.43 z m 426.88,-72.27 h -426.88 v 0.49 c -81.47,0 -155.22,-33.02 -208.59,-86.4 -53.38,-53.37 -86.4,-127.12 -86.4,-208.59 0,-81.46 33.02,-155.21 86.4,-208.59 53.37,-53.38 127.13,-86.39 208.59,-86.39 81.46,0 155.21,33.01 208.58,86.39 53.39,53.38 86.41,127.13 86.41,208.59 0,41.45 -8.55,80.89 -23.98,116.68 h -123.01 c 25.33,-32.09 40.46,-72.62 40.46,-116.68 0,-52.03 -21.1,-99.15 -55.21,-133.26 -34.1,-34.1 -81.21,-55.2 -133.25,-55.2 -52.04,0 -99.16,21.1 -133.26,55.2 -34.11,34.11 -55.2,81.23 -55.2,133.26 0,52.04 21.09,99.16 55.2,133.26 34.1,34.11 81.22,55.2 133.26,55.2 h 226.95 87.75 112.18 z m -344.38,-211.99 c -21.11,21.11 -50.28,34.17 -82.5,34.17 -32.23,0 -61.4,-13.06 -82.51,-34.17 -21.11,-21.11 -34.17,-50.29 -34.17,-82.51 0,-32.22 13.06,-61.39 34.17,-82.5 21.11,-21.12 50.28,-34.17 82.51,-34.17 32.22,0 61.39,13.05 82.5,34.17 21.11,21.11 34.17,50.28 34.17,82.5 0,32.22 -13.06,61.4 -34.17,82.51"/>
    
    </g>
</svg>